<svg xmlns="http://www.w3.org/2000/svg" viewBox="0 0 28.55 28.55" width="20px" height="20px"><defs><style>.cls-1{fill:none;stroke:#777;stroke-miterlimit:10;stroke-width:2px;}</style></defs><title>Asset 1</title><g id="Layer_2" data-name="Layer 2"><g id="Layer_1-2" data-name="Layer 1"><line class="cls-1" x1="24.27" y1="14.27" x2="4.27" y2="14.27"/><path d="M23.79,14.27c-1.25,1.25-1.85,3.73-1.9,5.45a16.36,16.36,0,0,1,6.66-5.45,17.25,17.25,0,0,1-6.66-5.45C22,10.66,22.49,12.9,23.79,14.27Z"/><path d="M4.76,14.27C6,15.53,6.61,18,6.66,19.73A16.36,16.36,0,0,0,0,14.27,17.25,17.25,0,0,0,6.66,8.82C6.51,10.66,6.06,12.9,4.76,14.27Z"/><line class="cls-1" x1="14.27" y1="4.27" x2="14.27" y2="24.27"/><path d="M14.27,4.76C15.53,6,18,6.61,19.73,6.66A16.36,16.36,0,0,1,14.27,0,17.25,17.25,0,0,1,8.82,6.66C10.66,6.51,12.9,6.06,14.27,4.76Z"/><path d="M14.27,23.79c1.25-1.25,3.73-1.85,5.45-1.9a16.36,16.36,0,0,0-5.45,6.66,17.25,17.25,0,0,0-5.45-6.66C10.66,22,12.9,22.49,14.27,23.79Z"/></g></g></svg>
