<svg xmlns="http://www.w3.org/2000/svg" viewBox="0 0 17.19 25.15"><defs><style>.cls-1{fill:#9c9;}.cls-2{fill:none;}</style></defs><title>Asset 1</title><g id="Layer_2" data-name="Layer 2"><g id="Layer_1-2" data-name="Layer 1"><path class="cls-1" d="M0,24.62,2.18,14.08A53.22,53.22,0,0,0,3.4,3.51q0-.33,0-.54t0-.47l0-.44,2-.92v.31q0,1.26-.09,2.71-.16,2.49-.49,5.2l-.07.51A20.71,20.71,0,0,1,7.25,5.14,19.71,19.71,0,0,1,9.54,2.39,9.93,9.93,0,0,1,11.89.59,4.72,4.72,0,0,1,14.06,0a2.78,2.78,0,0,1,2.29,1,4.36,4.36,0,0,1,.84,2.82A10.53,10.53,0,0,1,15.73,9a16,16,0,0,1-3.88,4.63A14.36,14.36,0,0,1,6.7,16.36,25.72,25.72,0,0,0,8.59,19.2a29.15,29.15,0,0,0,2.17,2.51,22.84,22.84,0,0,0,2.38,2.14l-1.34,1.3a23.8,23.8,0,0,1-3-2.79A28.17,28.17,0,0,1,6.2,19a14,14,0,0,1-1.6-3.07l.33,0a7.93,7.93,0,0,0,3.65-1A11.86,11.86,0,0,0,12,12.25a13.46,13.46,0,0,0,2.37-3.94,11.47,11.47,0,0,0,.91-4.23A3.51,3.51,0,0,0,14.72,2a1.83,1.83,0,0,0-1.56-.77,3.86,3.86,0,0,0-2,.67A10,10,0,0,0,9,3.71,19.9,19.9,0,0,0,6.9,6.64,24.6,24.6,0,0,0,5,10.71a38.17,38.17,0,0,0-1.37,5L1.72,24.62Z"/><path class="cls-1" d="M5.58,13.56c.77-.85,1.51-1.72,2.23-2.6s1.42-1.77,2-2.7S11.1,6.4,11.72,5.45s1.18-1.93,1.85-2.88h0a13.62,13.62,0,0,1-1.13,3.29,14.45,14.45,0,0,1-1.77,3,23.25,23.25,0,0,1-2.38,2.56A20.07,20.07,0,0,1,5.6,13.59Z"/><path class="cls-2" d="M10.09,8.92"/><path class="cls-2" d="M9.74,6.56"/></g></g></svg>