<?xml version="1.0" encoding="utf-8"?>
<!-- Generator: Adobe Illustrator 21.0.0, SVG Export Plug-In . SVG Version: 6.00 Build 0)  -->
<svg version="1.1" id="Layer_1" xmlns="http://www.w3.org/2000/svg" xmlns:xlink="http://www.w3.org/1999/xlink" x="0px" y="0px"
	 viewBox="0 0 1792 1792" style="enable-background:new 0 0 1792 1792;" xml:space="preserve">
<style type="text/css">
	.st0{fill:#eee;}
	.st1{fill:#444;}
	.st2{fill:none;stroke:#eee;stroke-width:124;stroke-miterlimit:10;}
</style>
<g id="XMLID_1_">
	<g>
		<path class="st0" d="M1664,224v1024c0,26.7-6.7,56-20,88s-29.3,57.3-48,76l-184,184c-18.7,18.7-44,34.7-76,48s-61.3,20-88,20H224
			c-26.7,0-49.3-9.3-68-28s-28-41.3-28-68V224c0-26.7,9.3-49.3,28-68s41.3-28,68-28h1344c26.7,0,49.3,9.3,68,28S1664,197.3,1664,224
			z M1536,1152V256H256v1280h896v-288c0-26.7,9.3-49.3,28-68s41.3-28,68-28H1536z M1528,1280h-248v248c19.3-6.7,33-14,41-22l185-185
			C1514,1313,1521.3,1299.3,1528,1280z"/>
		<path class="st1" d="M1536,256v896h-288c-26.7,0-49.3,9.3-68,28s-28,41.3-28,68v288H256V256H1536z"/>
		<path class="st1" d="M1280,1280h248c-6.7,19.3-14,33-22,41l-185,185c-8,8-21.7,15.3-41,22V1280z"/>
	</g>
	<g>
		<line class="st2" x1="426.5" y1="486" x2="1365.6" y2="486"/>
		<line class="st2" x1="426.5" y1="1025.3" x2="1365.6" y2="1025.3"/>
		<line class="st2" x1="426.5" y1="1294.9" x2="982" y2="1294.9"/>
		<line class="st2" x1="426.5" y1="755.6" x2="1365.6" y2="755.6"/>
	</g>
</g>
</svg>
