<svg xmlns="http://www.w3.org/2000/svg" viewBox="0 0 111.64 144.23"><defs><style>.cls-1{fill:#35bf51;}.cls-2{fill:#35bf51;}</style></defs><title>Asset 1</title><g id="Layer_2" data-name="Layer 2"><g id="Layer_1-2" data-name="Layer 1"><path class="cls-1" d="M46.76,79.09c0-7.33,0-14.66,0-22,0-6.38,3.42-10.44,8.76-10.71,5.5-.27,9.59,3.77,9.74,10.3.22,9.83.06,19.66.08,29.49,0,5.71.29,5.9,5.36,3.72,16-6.86,24.94-23.62,22-41.23-2.76-16.46-17.76-29.55-35-30.37-3.09-.15-6-.39-8.24-2.78-2.63-2.79-3.52-6.07-2-9.66A8.8,8.8,0,0,1,55.9,0c25.76-1,50.55,19.4,54.87,45.36,4.36,26.21-7.79,49.5-32,61-3,1.42-3.39,2.22-.86,4.61,5.69,5.37,11.16,11,16.65,16.57,4.31,4.39,4.64,10,1,13.77-4,4.1-9.3,3.81-14-.87q-15.81-15.65-31.56-31.34a9.81,9.81,0,0,1-3.14-7.55C46.84,94.09,46.76,86.59,46.76,79.09Z"/><path class="cls-2" d="M.17,62.49C-.86,47.18,2.77,31.87,14,18.9c2.77-3.2,5.8-6.16,10.59-5.28,7.15,1.31,10.51,9.68,5.48,15C21,38.12,17.93,49.27,18.73,62a115.18,115.18,0,0,1,0,12.48c-.24,5.36-3.67,9-8.5,9.43s-8.43-2.74-9.77-8c-.51-2-.2-4-.25-5.93S.17,65.91.17,62.49Z"/><path class="cls-2" d="M3.37,108.1a6.07,6.07,0,0,1,6.14-6.4c3.72.13,5.78,2.31,6.1,5.92a6.13,6.13,0,0,1-6.11,6.45A6.25,6.25,0,0,1,3.37,108.1Z"/><path class="cls-2" d="M12.59,135.45c-.57,1.66-1.51,3-3.5,2.64a2.87,2.87,0,0,1-2.65-3.44c.22-2,1.55-2.77,3.44-2.6S12.6,133.56,12.59,135.45Z"/></g></g></svg>